# xmcd
#
# Track frame offsets: 
#        150
#        15089
#        30653
#        44735
#        62980
#        78504
#        90185
#        118493
#        136106
#        148819
#        167899
#        182679
#        197782
#        211449
#        229567
#        244474
#        255889
#        283619
#        301734
#        314127
#
# Disc length: 4431 seconds
#
# Revision: 0
# Processed by: cddbd v1.5.2PL0 Copyright (c) Steve Scherf et al.
# Submitted via: ExactAudioCopy v0.95b3
#
DISCID=1d114d14
DTITLE=The Rascals  - The Young Rascals - The Complete Atlantic Discog
DTITLE=raphy (1965-1971) - Disc 01
DYEAR=1900
DGENRE=
TTITLE0=Slow Down [Mono]
TTITLE1=Baby Let's Wait [Mono]
TTITLE2=Just A Little [Mono]
TTITLE3=I Believe [Mono]
TTITLE4=Do You Feel It [Mono]
TTITLE5=Good Lovin' [Mono]
TTITLE6=Like A Rolling Stone [Mono]
TTITLE7=Mustang Sally [Mono]
TTITLE8=I Ain't Gonna Eat Out My Heart Anymore [Mono]
TTITLE9=In The Midnight Hour [Mono]
TTITLE10=Slow Down [Stereo]
TTITLE11=Baby Let's Wait [Stereo]
TTITLE12=Just a Little [Stereo]
TTITLE13=I Believe [Stereo]
TTITLE14=Do You Feel It [Stereo]
TTITLE15=Good Lovin' [Stereo]
TTITLE16=Like a Rolling Stone [Stereo]
TTITLE17=Mustang Sally [Stereo]
TTITLE18=I Ain't Gonna Eat Out My Heart Anymore [Stereo]
TTITLE19=In the Midnight Hour [Stereo]
EXTD=
EXTT0=
EXTT1=
EXTT2=
EXTT3=
EXTT4=
EXTT5=
EXTT6=
EXTT7=
EXTT8=
EXTT9=
EXTT10=
EXTT11=
EXTT12=
EXTT13=
EXTT14=
EXTT15=
EXTT16=
EXTT17=
EXTT18=
EXTT19=
PLAYORDER=
